<svg width="284" height="126" viewBox="0 0 284 126" fill="none" xmlns="http://www.w3.org/2000/svg">
<g clip-path="url(#clip0)">
<path fill-rule="evenodd" clip-rule="evenodd" d="M51.8164 37H74.4745C75.8323 37 77.1311 38.0148 76.9422 39.2184L74.9231 52.1984H74.9113V52.2102C74.9113 52.222 74.9113 52.2456 74.9113 52.2574L74.8877 52.3754C74.7933 52.7412 74.439 53.0126 74.0022 53.0126H52.2296C51.7692 53.0126 51.3795 52.7058 51.3323 52.2928L49.3487 39.2184C49.1716 38.0148 50.4586 37 51.8164 37ZM46.8928 62.1694C51.6983 65.4734 57.3422 67.2198 63.1631 67.2198C68.8306 67.2198 74.38 65.615 79.0675 62.429C81.9721 60.4584 83.3889 63.8804 81.4525 65.1194C75.9267 68.6358 69.7516 70.7952 63.1631 70.7952C56.5747 70.7952 50.4822 68.5414 44.9092 65.143C44.366 64.8008 44 64.2344 44 63.5736C44 62.0042 45.4877 61.2018 46.8928 62.1694ZM61.0851 77.0846C62.1005 76.6244 64.2848 76.6008 65.3002 77.061C66.0205 74.6066 68.2875 72.8956 70.8851 72.8956C74.0966 72.8956 76.706 75.5034 76.706 78.713C76.706 81.9226 74.0966 84.5304 70.8851 84.5304C67.6735 84.5304 65.0641 81.9226 65.0641 78.713C65.0641 78.6658 65.0641 78.6068 65.0641 78.5596C64.4147 77.9696 61.9824 78.0286 61.3094 78.5832C61.3094 78.6304 61.3094 78.6658 61.3094 78.713C61.3094 81.9226 58.7 84.5304 55.4884 84.5304C52.2769 84.5304 49.6675 81.9226 49.6675 78.713C49.6675 75.5034 52.2769 72.8956 55.4884 72.8956C58.0978 72.8838 60.3766 74.6184 61.0851 77.0846ZM70.8733 74.2408C68.4174 74.2408 66.4219 76.235 66.4219 78.6894C66.4219 81.1438 68.4174 83.138 70.8733 83.138C73.3292 83.138 75.3246 81.1438 75.3246 78.6894C75.3364 76.235 73.341 74.2408 70.8733 74.2408ZM55.5002 74.2408C53.0443 74.2408 51.0489 76.235 51.0489 78.6894C51.0489 81.1438 53.0443 83.138 55.5002 83.138C57.9561 83.138 59.9516 81.1438 59.9516 78.6894C59.9516 76.235 57.9561 74.2408 55.5002 74.2408ZM47.3533 89.7106C47.6366 91.5632 48.3805 93.0736 49.7619 94.171C53.6583 97.2508 59.8099 96.236 63.1986 92.7432C66.5754 96.2124 72.727 97.2272 76.6116 94.1474C78.0048 93.05 78.7369 91.5396 79.0202 89.687C76.7296 91.4216 74.8759 92.3774 71.5463 91.044C68.0986 89.6634 66.5046 84.613 63.1867 88.9436C59.9752 84.6012 58.2513 89.6988 54.839 91.0676C51.4976 92.3892 49.632 91.4452 47.3533 89.7106ZM74.3328 55.9744L74.321 56.0098C74.3092 56.0806 74.2855 56.1514 74.2501 56.2222L74.2855 56.234L73.4354 61.7446C73.0222 64.3996 65.0995 65.0958 62.868 65.0958C60.7308 65.0958 53.1506 64.3288 52.761 61.7446L51.8872 55.939C51.8872 55.9154 51.8872 55.8918 51.8872 55.88C51.8872 55.4316 52.2887 55.0658 52.7964 55.0658H73.4354C73.9313 55.0658 74.3446 55.4316 74.3446 55.88C74.3446 55.9154 74.3446 55.9508 74.3328 55.9744Z" fill="#5c5e62"/>
<path fill-rule="evenodd" clip-rule="evenodd" d="M205.381 49.5198L205.428 45.083H210.801L210.742 49.5198H205.381ZM205.428 73.8632L205.381 51.9978H210.742L210.801 73.8632H205.428ZM155.921 49.5198L155.968 45.083H161.34L161.281 49.5198H155.921ZM146.345 68.8246C146.959 68.2464 147.49 67.3732 147.797 66.3584C148.104 65.3436 148.258 64.1872 148.258 62.8774C148.258 61.5794 148.116 60.423 147.809 59.4318C147.502 58.4288 147.065 57.5202 146.404 56.8712C145.672 56.2104 144.787 55.8328 143.913 55.8328C140.784 55.8328 140.193 58.712 140.193 60.1044V64.966C140.193 69.7096 143.181 69.8276 143.795 69.8276C144.692 69.804 145.731 69.4028 146.345 68.8246ZM184.789 69.9456C185.155 69.804 185.521 69.5916 185.852 69.2966C186.194 69.0134 186.466 68.6122 186.69 68.1402C186.903 67.6564 187.021 67.0782 187.033 66.382V63.4556C186.313 63.4438 185.616 63.5028 184.943 63.6208C184.27 63.727 183.644 63.9276 183.101 64.2108C182.546 64.5058 182.109 64.907 181.79 65.4026C181.46 65.9218 181.294 66.3584 181.283 67.149C181.294 67.8334 181.413 68.3998 181.637 68.8364C181.849 69.273 182.168 69.5916 182.534 69.804C182.9 70.0164 183.313 70.1226 183.75 70.1108C184.081 70.1462 184.423 70.0754 184.789 69.9456ZM187.281 71.9398L187.21 71.9988C186.655 72.872 185.132 74.2644 182.18 74.2644C181.011 74.2526 180.019 73.9458 179.169 73.3676C178.331 72.7776 177.681 71.987 177.221 71.0076C176.772 70.0164 176.536 68.9308 176.536 67.739C176.536 66.3466 176.796 65.1194 177.292 64.1046C177.8 63.0662 178.496 62.2166 179.429 61.544C180.338 60.8596 181.424 60.3522 182.676 60.0336C183.927 59.7032 185.309 59.538 186.797 59.538C186.808 58.8182 186.714 58.1692 186.537 57.591C186.348 57.0364 186.006 56.5762 185.51 56.2458C185.026 55.9154 184.317 55.7384 183.42 55.7384C182.546 55.7384 181.72 55.88 180.928 56.1514C180.126 56.4228 179.417 56.7768 178.803 57.2134L177.859 53.4492C178.272 53.166 178.803 52.8828 179.441 52.5878C180.09 52.3164 180.822 52.0804 181.649 51.8916C182.487 51.7028 183.384 51.6202 184.364 51.6084C185.828 51.6202 187.021 51.868 187.989 52.3518C188.957 52.8356 189.713 53.5082 190.268 54.3578C190.823 55.2074 191.224 56.175 191.46 57.2488C191.697 58.3344 191.803 59.479 191.803 60.6826V68.3526C191.803 69.3202 192.334 70.3468 193.727 70.4294V74.4768C190.717 75.232 188.532 74.4414 187.281 71.9398ZM123.923 69.9456C124.289 69.804 124.655 69.5916 124.986 69.2966C125.328 69.0134 125.6 68.6122 125.824 68.1402C126.037 67.6564 126.155 67.0782 126.166 66.382V63.4556C125.446 63.4438 124.75 63.5028 124.077 63.6208C123.404 63.727 122.778 63.9276 122.235 64.2108C121.68 64.5058 121.243 64.907 120.924 65.4026C120.593 65.9218 120.428 66.3584 120.416 67.149C120.428 67.8334 120.546 68.3998 120.771 68.8364C120.983 69.273 121.302 69.5916 121.668 69.804C122.034 70.0164 122.447 70.1226 122.884 70.1108C123.215 70.1462 123.557 70.0754 123.923 69.9456ZM155.968 73.8632L155.921 51.9978H161.281L161.34 73.8632H155.968ZM216.988 74.0992C216.267 73.9694 215.606 73.8042 214.98 73.58C214.367 73.3558 213.823 73.108 213.351 72.813L214 68.5532C214.378 68.7892 215.854 69.509 217.33 69.8158C217.92 69.9692 218.523 70.04 219.089 70.0518C220.046 70.04 220.754 69.8394 221.203 69.45C221.663 69.0488 221.888 68.5178 221.864 67.8334C221.852 67.3968 221.758 66.9956 221.557 66.6534C221.368 66.323 221.061 66.0044 220.613 65.6976C220.187 65.4026 219.585 65.0722 218.83 64.7418C217.543 64.1754 216.504 63.55 215.713 62.8774C214.933 62.1812 214.355 61.4614 213.989 60.6944C213.623 59.9274 213.422 59.1368 213.41 58.3226C213.375 56.9892 213.658 55.8092 214.237 54.759C214.815 53.7206 215.665 52.8946 216.763 52.281C217.873 51.6792 219.184 51.3724 220.707 51.3606C221.758 51.3724 222.726 51.4904 223.612 51.7264C224.485 51.9624 225.229 52.2456 225.831 52.5996L225.43 56.8122C224.969 56.5408 223.895 56.1868 223.21 55.9508C222.537 55.703 221.805 55.585 221.026 55.5614C220.199 55.5732 219.573 55.7856 219.16 56.1632C218.747 56.5526 218.534 57.0482 218.558 57.6618C218.558 58.063 218.664 58.417 218.877 58.7238C219.078 59.0424 219.42 59.3374 219.88 59.6206C220.353 59.9156 220.979 60.2342 221.77 60.5882C223.517 61.3552 224.828 62.2874 225.678 63.3848C226.54 64.494 227 65.8038 227.036 67.3142C227.071 68.7184 226.788 69.9456 226.186 70.984C225.583 72.0224 224.686 72.8366 223.505 73.4148C222.325 73.9812 220.872 74.2762 219.172 74.2998C218.428 74.2644 217.684 74.2172 216.988 74.0992ZM106.035 74.288C104.028 74.2762 102.257 73.8986 100.71 73.1552C99.1634 72.4118 97.8646 71.3498 96.8019 69.9692C95.7511 68.6004 94.9482 66.9602 94.4051 65.0722C93.8501 63.1724 93.5786 61.072 93.5786 58.7592C93.5904 56.0452 93.9446 53.6616 94.6294 51.632C95.3142 49.5906 96.2588 47.8796 97.4631 46.5226C98.6675 45.1538 100.049 44.1272 101.619 43.4428C103.19 42.7584 104.878 42.4162 106.661 42.4162C107.617 42.4162 108.467 42.487 109.2 42.605C110.971 42.959 112.765 43.4428 114.595 44.2924L114.135 48.7174L112.517 48.7056C110.734 47.62 108.857 47.4076 106.897 47.4076C105.787 47.4076 104.748 47.6318 103.792 48.0684C102.835 48.5168 101.985 49.1894 101.265 50.098C100.545 50.9948 99.9781 52.1512 99.5766 53.5318C99.1752 54.9124 98.9626 56.5526 98.9508 58.417C98.9626 60.7652 99.2932 62.7358 99.9308 64.3288C100.58 65.9336 101.489 67.1372 102.67 67.9514C103.863 68.7774 105.256 69.1786 106.873 69.1904C108.774 69.155 110.605 68.7774 112.352 67.9868L113.958 67.9514L114.454 72.4354C111.679 73.9104 108.172 74.3824 106.035 74.288ZM195.817 68.9426V40.4692L201.296 43.0652V68.2818C201.308 69.7568 201.922 70.276 202.949 70.2996V74.2526C198.049 75.0432 195.817 72.931 195.817 68.9426ZM233.412 73.9576C232.668 73.58 232.077 73.0962 231.652 72.4708C231.227 71.869 230.92 71.2082 230.731 70.5002C230.531 69.7922 230.413 69.1196 230.365 68.447C230.318 67.7744 230.294 67.208 230.306 66.7124L230.294 56.1278H227.827V52.0096H230.294L230.306 44.3868L235.679 47.2896V51.9978H239.374V56.234H235.679V66.9484C235.679 68.4588 235.891 69.096 236.281 69.686C236.682 70.2642 237.969 70.7362 239.374 70.3586V74.1228C239.091 74.2526 238.772 74.3352 238.441 74.3942C237.816 74.4768 237.095 74.524 236.293 74.524C235.135 74.524 234.179 74.3234 233.412 73.9576ZM168.708 73.9576C167.964 73.58 167.374 73.0962 166.949 72.4708C166.524 71.869 166.217 71.2082 166.028 70.5002C165.827 69.7922 165.709 69.1196 165.662 68.447C165.614 67.7744 165.591 67.208 165.603 66.7124L165.591 56.1278H163.123V52.0096H165.591L165.614 44.375L170.987 47.2778V51.986H174.682V56.2222H170.987V66.9366C170.987 68.447 171.199 69.0842 171.589 69.6742C171.99 70.2524 173.277 70.7244 174.682 70.3468V74.111C174.399 74.2408 174.08 74.3234 173.75 74.3824C173.124 74.465 172.404 74.5122 171.601 74.5122C170.432 74.524 169.475 74.3234 168.708 73.9576ZM126.426 71.9398L126.355 71.9988C125.8 72.872 124.277 74.2644 121.326 74.2644C120.157 74.2526 119.165 73.9458 118.315 73.3676C117.476 72.7776 116.827 71.987 116.367 71.0076C115.918 70.0164 115.682 68.9308 115.682 67.739C115.682 66.3466 115.941 65.1194 116.437 64.1046C116.945 63.0662 117.642 62.2166 118.574 61.544C119.484 60.8596 120.57 60.3522 121.821 60.0336C123.073 59.7032 124.454 59.538 125.942 59.538C125.954 58.8182 125.86 58.1692 125.682 57.591C125.493 57.0364 125.151 56.5762 124.655 56.2458C124.171 55.9154 123.463 55.7384 122.565 55.7384C121.692 55.7384 120.865 55.88 120.074 56.1514C119.271 56.4228 118.563 56.7768 117.949 57.2134L117.004 53.4492C117.417 53.166 117.949 52.8828 118.586 52.5878C119.236 52.3164 119.968 52.0804 120.794 51.8916C121.633 51.7028 122.53 51.6202 123.51 51.6084C124.974 51.6202 126.167 51.868 127.135 52.3518C128.103 52.8356 128.859 53.5082 129.413 54.3578C129.98 55.2074 130.37 56.175 130.606 57.2488C130.842 58.3344 130.948 59.479 130.948 60.6826V68.3526C130.948 69.3202 131.48 70.3468 132.873 70.4294V74.4768C129.85 75.232 127.666 74.4414 126.426 71.9398ZM140.571 80.7662L135.293 78.2882V59.1368C135.293 57.7444 135.282 56.4582 135.246 55.2782C135.223 54.11 135.293 52.6704 135.246 51.6792H139.32C139.556 52.1512 139.733 52.6468 139.839 53.1424C141.292 52.0332 143.051 51.4668 145.141 51.4904C147.301 51.4904 148.707 52.045 149.84 52.9772C150.973 53.8858 151.859 55.172 152.508 56.8358C153.158 58.4996 153.488 60.4348 153.5 62.6768C153.488 64.671 153.252 66.3938 152.792 67.8452C152.331 69.2966 151.706 70.4766 150.938 71.4206C150.159 72.3528 149.285 73.049 148.329 73.4974C147.372 73.9458 146.369 74.17 145.353 74.17C143.5 74.229 141.882 73.7452 140.571 72.6596V80.7662V80.7662Z" fill="#5c5e62"/>
<path d="M99.3405 87.5276C99.3405 88.507 99.1043 89.2976 98.632 89.8994C98.1598 90.5012 97.5104 90.7962 96.6957 90.7962C96.2706 90.7962 95.9046 90.7254 95.5976 90.5838C95.2788 90.4422 95.0072 90.2298 94.7947 89.9466V93.2742H93.5549V83.8696H94.4995L94.7002 84.7428C94.9246 84.4124 95.1961 84.1646 95.5267 83.9994C95.8573 83.8224 96.247 83.7398 96.6838 83.7398C97.5222 83.7398 98.1834 84.0702 98.6438 84.7428C99.1161 85.4154 99.3405 86.3004 99.3405 87.3978V87.5276ZM98.1007 87.3978C98.1007 86.6308 97.9472 85.9936 97.6402 85.498C97.3332 85.0024 96.8846 84.7546 96.2942 84.7546C95.94 84.7546 95.633 84.8372 95.3851 85.0024C95.1371 85.1676 94.9246 85.38 94.7711 85.6632V88.9436C94.9246 89.2268 95.1253 89.4392 95.3851 89.6044C95.633 89.7578 95.94 89.8404 96.306 89.8404C96.8964 89.8404 97.3332 89.628 97.6402 89.2032C97.9472 88.7666 98.0889 88.2238 98.0889 87.5394V87.3978H98.1007ZM105.032 90.6664C104.996 90.4658 104.961 90.277 104.937 90.1236C104.913 89.9702 104.902 89.805 104.902 89.6516C104.666 89.982 104.37 90.2534 104.004 90.4776C103.638 90.7018 103.237 90.808 102.812 90.808C102.103 90.808 101.56 90.631 101.194 90.2652C100.828 89.8994 100.639 89.4038 100.639 88.7666C100.639 88.1176 100.899 87.6102 101.43 87.2444C101.962 86.8786 102.67 86.6898 103.567 86.6898H104.913V86.0172C104.913 85.616 104.795 85.3092 104.547 85.0732C104.3 84.8372 103.957 84.7192 103.52 84.7192C103.119 84.7192 102.8 84.8254 102.552 85.026C102.304 85.2266 102.174 85.4744 102.174 85.7576H100.993L100.982 85.7222C100.958 85.2266 101.194 84.7782 101.678 84.3652C102.174 83.9522 102.812 83.7516 103.591 83.7516C104.359 83.7516 104.984 83.9522 105.445 84.3416C105.917 84.731 106.153 85.2974 106.153 86.0408V89.3094C106.153 89.5572 106.165 89.7814 106.189 90.0174C106.212 90.2416 106.26 90.4658 106.33 90.6782H105.032V90.6664ZM102.977 89.7696C103.426 89.7696 103.827 89.6516 104.193 89.4274C104.559 89.1914 104.784 88.9318 104.902 88.6368V87.5276H103.508C103.013 87.5276 102.611 87.6574 102.316 87.9052C102.021 88.153 101.867 88.448 101.867 88.7902C101.867 89.097 101.962 89.333 102.151 89.51C102.34 89.6752 102.611 89.7696 102.977 89.7696ZM110.014 88.153L110.239 89.0026H110.274L111.951 83.8696H113.332L110.475 91.7048C110.298 92.165 110.061 92.5544 109.731 92.8966C109.412 93.2388 108.975 93.404 108.432 93.404C108.338 93.404 108.208 93.3922 108.054 93.3686C107.901 93.345 107.783 93.3214 107.7 93.2978L107.83 92.3302C107.806 92.3302 107.877 92.3302 108.054 92.342C108.231 92.3538 108.338 92.3656 108.385 92.3656C108.645 92.3656 108.869 92.2476 109.034 92.0116C109.2 91.7756 109.341 91.516 109.459 91.2328L109.754 90.5248L107.228 83.8696H108.609L110.014 88.153ZM115.516 83.8696L115.599 84.7664C115.823 84.4478 116.107 84.1882 116.449 84.0112C116.792 83.8342 117.181 83.7398 117.642 83.7398C118.09 83.7398 118.48 83.846 118.811 84.0584C119.141 84.2708 119.377 84.5894 119.543 85.0024C119.755 84.613 120.039 84.318 120.393 84.082C120.747 83.8578 121.16 83.7398 121.621 83.7398C122.317 83.7398 122.86 83.9758 123.262 84.4478C123.663 84.9198 123.864 85.6396 123.864 86.5954V90.6546H122.624V86.5836C122.624 85.911 122.506 85.439 122.282 85.1676C122.046 84.8844 121.703 84.7546 121.255 84.7546C120.83 84.7546 120.487 84.8962 120.227 85.1912C119.968 85.4862 119.814 85.852 119.767 86.3004V86.3476V90.6664H118.527V86.5954C118.527 85.9582 118.409 85.498 118.173 85.203C117.937 84.908 117.594 84.7546 117.146 84.7546C116.768 84.7546 116.461 84.8372 116.213 84.9906C115.965 85.144 115.788 85.3682 115.658 85.6396V90.6664H114.418V83.8696H115.516V83.8696ZM128.481 90.7962C127.536 90.7962 126.78 90.4776 126.226 89.8522C125.671 89.2268 125.387 88.4008 125.387 87.3978V87.1264C125.387 86.1588 125.671 85.3564 126.249 84.7074C126.828 84.0584 127.501 83.7398 128.292 83.7398C129.213 83.7398 129.898 84.0112 130.37 84.5658C130.842 85.1204 131.078 85.852 131.078 86.7724V87.5394H126.674L126.651 87.5748C126.662 88.2238 126.828 88.7666 127.146 89.1796C127.465 89.6044 127.914 89.8168 128.481 89.8168C128.906 89.8168 129.272 89.7578 129.591 89.6398C129.909 89.5218 130.181 89.3566 130.405 89.1442L130.889 89.9466C130.641 90.1826 130.323 90.3832 129.933 90.5484C129.52 90.7254 129.036 90.7962 128.481 90.7962ZM128.292 84.7192C127.879 84.7192 127.524 84.8962 127.229 85.2502C126.934 85.6042 126.757 86.0408 126.686 86.5718L126.698 86.6072H129.839V86.442C129.839 85.9582 129.709 85.5452 129.449 85.2266C129.177 84.8844 128.8 84.7192 128.292 84.7192ZM133.57 83.8696L133.652 84.8844C133.877 84.5186 134.16 84.2472 134.502 84.0466C134.845 83.846 135.234 83.7516 135.671 83.7516C136.403 83.7516 136.97 83.964 137.372 84.3888C137.773 84.8254 137.974 85.4862 137.974 86.383V90.6664H136.734V86.4066C136.734 85.8048 136.616 85.38 136.38 85.1322C136.144 84.8844 135.778 84.7546 135.293 84.7546C134.939 84.7546 134.62 84.8372 134.349 85.0142C134.077 85.1912 133.853 85.4272 133.688 85.7222V90.6782H132.448V83.8814H133.57V83.8696ZM141.41 82.2294V83.8696H142.697V84.79H141.41V88.92C141.41 89.2386 141.469 89.4628 141.61 89.5926C141.74 89.7224 141.917 89.7932 142.142 89.7932C142.213 89.7932 142.295 89.7814 142.378 89.7696C142.46 89.7578 142.543 89.7342 142.602 89.7106L142.767 90.5602C142.673 90.631 142.543 90.7018 142.366 90.749C142.189 90.7962 142.012 90.8198 141.823 90.8198C141.315 90.8198 140.926 90.6664 140.619 90.3596C140.323 90.0528 140.17 89.5808 140.17 88.9318V84.8018H139.084V83.8814H140.17V82.2412H141.41V82.2294ZM150.088 88.861C150.088 88.5896 149.982 88.3654 149.781 88.1884C149.568 88.0114 149.179 87.858 148.6 87.7282C147.774 87.5512 147.16 87.3034 146.735 86.9966C146.321 86.6898 146.109 86.265 146.109 85.734C146.109 85.1794 146.345 84.7074 146.817 84.318C147.29 83.9286 147.904 83.728 148.647 83.728C149.439 83.728 150.064 83.9286 150.537 84.3416C151.009 84.7546 151.221 85.2384 151.21 85.8284L151.198 85.8638H150.017C150.017 85.5688 149.887 85.2974 149.639 85.0614C149.391 84.8254 149.061 84.7074 148.647 84.7074C148.211 84.7074 147.88 84.8018 147.667 85.0024C147.455 85.1912 147.349 85.4272 147.349 85.6986C147.349 85.97 147.443 86.1824 147.632 86.3358C147.821 86.4892 148.211 86.6308 148.777 86.7488C149.639 86.9376 150.277 87.1854 150.69 87.504C151.103 87.8226 151.316 88.2474 151.316 88.7784C151.316 89.3802 151.068 89.864 150.584 90.2416C150.1 90.6192 149.462 90.7962 148.671 90.7962C147.809 90.7962 147.124 90.572 146.628 90.1354C146.133 89.6988 145.896 89.1796 145.92 88.6014L145.932 88.566H147.113C147.136 89.0026 147.301 89.3212 147.597 89.5336C147.904 89.7342 148.258 89.8404 148.671 89.8404C149.108 89.8404 149.45 89.746 149.71 89.569C149.97 89.392 150.088 89.156 150.088 88.861ZM154.953 88.153L155.177 89.0026H155.212L156.889 83.8696H158.27L155.413 91.7048C155.236 92.165 155 92.5544 154.669 92.8966C154.35 93.2388 153.913 93.404 153.37 93.404C153.276 93.404 153.146 93.3922 152.993 93.3686C152.839 93.345 152.721 93.3214 152.638 93.2978L152.768 92.3302C152.745 92.3302 152.815 92.3302 152.993 92.342C153.17 92.3538 153.276 92.3656 153.323 92.3656C153.583 92.3656 153.807 92.2476 153.973 92.0116C154.138 91.7756 154.28 91.516 154.398 91.2328L154.693 90.5248L152.166 83.8696H153.547L154.953 88.153ZM163.3 88.861C163.3 88.5896 163.194 88.3654 162.993 88.1884C162.781 88.0114 162.391 87.858 161.813 87.7282C160.986 87.5512 160.372 87.3034 159.947 86.9966C159.534 86.6898 159.321 86.265 159.321 85.734C159.321 85.1794 159.557 84.7074 160.03 84.318C160.502 83.9286 161.116 83.728 161.86 83.728C162.651 83.728 163.277 83.9286 163.749 84.3416C164.221 84.7546 164.434 85.2384 164.422 85.8284L164.41 85.8638H163.229C163.229 85.5688 163.1 85.2974 162.852 85.0614C162.604 84.8254 162.273 84.7074 161.86 84.7074C161.423 84.7074 161.092 84.8018 160.88 85.0024C160.667 85.1912 160.561 85.4272 160.561 85.6986C160.561 85.97 160.655 86.1824 160.844 86.3358C161.033 86.4892 161.423 86.6308 161.99 86.7488C162.852 86.9376 163.489 87.1854 163.902 87.504C164.316 87.8226 164.528 88.2474 164.528 88.7784C164.528 89.3802 164.28 89.864 163.796 90.2416C163.312 90.6192 162.674 90.7962 161.883 90.7962C161.021 90.7962 160.337 90.572 159.841 90.1354C159.345 89.6988 159.109 89.1796 159.132 88.6014L159.144 88.566H160.325C160.348 89.0026 160.514 89.3212 160.809 89.5336C161.116 89.7342 161.47 89.8404 161.883 89.8404C162.32 89.8404 162.663 89.746 162.922 89.569C163.17 89.392 163.3 89.156 163.3 88.861ZM167.704 82.2294V83.8696H168.991V84.79H167.704V88.92C167.704 89.2386 167.763 89.4628 167.905 89.5926C168.035 89.7224 168.212 89.7932 168.436 89.7932C168.507 89.7932 168.59 89.7814 168.673 89.7696C168.755 89.7578 168.838 89.7342 168.897 89.7106L169.062 90.5602C168.968 90.631 168.838 90.7018 168.661 90.749C168.484 90.7962 168.307 90.8198 168.118 90.8198C167.61 90.8198 167.22 90.6664 166.913 90.3596C166.618 90.0528 166.465 89.5808 166.465 88.9318V84.8018H165.378V83.8814H166.465V82.2412H167.704V82.2294ZM173.336 90.7962C172.392 90.7962 171.636 90.4776 171.081 89.8522C170.526 89.2268 170.243 88.4008 170.243 87.3978V87.1264C170.243 86.1588 170.526 85.3564 171.105 84.7074C171.683 84.0584 172.356 83.7398 173.147 83.7398C174.068 83.7398 174.753 84.0112 175.226 84.5658C175.698 85.1204 175.934 85.852 175.934 86.7724V87.5394H171.53L171.506 87.5748C171.518 88.2238 171.683 88.7666 172.002 89.1796C172.321 89.6044 172.77 89.8168 173.336 89.8168C173.761 89.8168 174.127 89.7578 174.446 89.6398C174.765 89.5218 175.037 89.3566 175.261 89.1442L175.745 89.9466C175.497 90.1826 175.178 90.3832 174.789 90.5484C174.387 90.7254 173.903 90.7962 173.336 90.7962ZM173.147 84.7192C172.734 84.7192 172.38 84.8962 172.085 85.2502C171.79 85.6042 171.613 86.0408 171.542 86.5718L171.553 86.6072H174.694V86.442C174.694 85.9582 174.564 85.5452 174.305 85.2266C174.045 84.8844 173.667 84.7192 173.147 84.7192ZM178.437 83.8696L178.52 84.7664C178.744 84.4478 179.027 84.1882 179.37 84.0112C179.712 83.8342 180.102 83.7398 180.562 83.7398C181.011 83.7398 181.401 83.846 181.731 84.0584C182.062 84.2708 182.298 84.5894 182.463 85.0024C182.676 84.613 182.959 84.318 183.313 84.082C183.668 83.8578 184.081 83.7398 184.541 83.7398C185.238 83.7398 185.781 83.9758 186.183 84.4478C186.584 84.9198 186.785 85.6396 186.785 86.5954V90.6546H185.545V86.5836C185.545 85.911 185.427 85.439 185.203 85.1676C184.966 84.8844 184.624 84.7546 184.175 84.7546C183.75 84.7546 183.408 84.8962 183.148 85.1912C182.888 85.4862 182.735 85.852 182.688 86.3004V86.3476V90.6664H181.448V86.5954C181.448 85.9582 181.33 85.498 181.094 85.203C180.858 84.908 180.515 84.7546 180.066 84.7546C179.689 84.7546 179.382 84.8372 179.134 84.9906C178.886 85.144 178.709 85.3682 178.579 85.6396V90.6664H177.339V83.8696H178.437V83.8696Z" fill="#5c5e62"/>
</g>
<defs>
<clipPath id="clip0">
<rect width="196" height="59" fill="white" transform="translate(44 37)"/>
</clipPath>
</defs>
</svg>
