<?xml version="1.0" encoding="utf-8"?>
<!-- Generator: Adobe Illustrator 25.0.1, SVG Export Plug-In . SVG Version: 6.00 Build 0)  -->
<svg fill="#5c5e62" version="1.0" id="katman_1" xmlns="http://www.w3.org/2000/svg" xmlns:xlink="http://www.w3.org/1999/xlink" x="0px" y="0px"
	 viewBox="0 0 560 400" style="enable-background:new 0 0 560 400;" xml:space="preserve">

<g>
	<path class="st0" d="M191.6,147.4c0.4,10,9.1,48.4,9.1,48.4c3.2,7.8,5.9,0,5.9,0c10.5-31.5-11-49.7-11-49.7
		C190.2,142.8,191.6,147.4,191.6,147.4 M316.1,141.9c0,0,10.5,7.3,0,8.7c0,0-39.2,4.6-68.4,31.9c0,0-43.8,38.3-60.2,80.3
		c0,0-5.5,0-3.6-8.2c1.8-8.2,12.8-44.3,61.6-88.5C245.4,166.1,292.4,123.2,316.1,141.9"/>
	<path d="M116.5,202.7c1.7,0.4,3.3,0.5,5.6,0.5c8.9,0,15-5.8,15-13.1c0-6.6-4.7-8.9-10.7-8.9c-2.7,0-4.7,0.2-5.9,0.5L116.5,202.7z
		 M111.5,174.2c3.7-0.9,9.3-1.5,14.8-1.5c5.8,0,11.8,1.2,15.8,4.4c3.6,2.7,5.7,6.8,5.7,12.2c0,7.3-3.5,13.2-7.9,16.7
		c-4.9,3.9-12,5.8-19.3,5.8c-2.2,0-4.1-0.3-5.8-0.5l-4.5,23.3H100L111.5,174.2z"/>
	<path d="M176,197.9c-1.1-0.3-2.5-0.5-4.4-0.5c-9.8,0-17.5,11.1-17.5,21.2c0,4.7,1.7,8.5,6.4,8.5c5,0,11.1-6.2,13.2-17.5L176,197.9z
		 M171.7,234.7c0-2.7,0.4-6.2,0.7-10h-0.2c-4.4,8.1-10.3,11-16,11c-7.9,0-13.2-6.2-13.2-15.2c0-15.2,10.6-31.3,31.3-31.3
		c4.8,0,10,0.9,13.5,2l-4.7,23.2c-1.3,6.6-2,15-1.8,20.3H171.7z"/>
	<path d="M248.4,217.1c0,6.1,3.2,10.4,8.7,10.4c7.9,0,13.2-11,13.2-19.8c0-4.6-2.1-10.2-8.5-10.2
		C253.4,197.4,248.4,208.8,248.4,217.1 M281.3,207.6c0,15.2-10.5,28.1-25.7,28.1c-11.2,0-18.2-7.8-18.2-18.4
		c0-15.1,10.5-28.1,25.7-28.1C275.1,189.2,281.3,197.8,281.3,207.6"/>
	<path d="M283.3,234.7l5.8-30.7c1.1-5.3,1.7-10,2.3-13.8h9.5l-1,7.9h0.2c4.1-5.9,9.8-9,16-9c6.4,0,11.3,3.8,11.3,12.2
		c0,2-0.4,5.1-0.8,7.3l-4.9,25.9H311l4.7-25.1c0.3-1.6,0.6-3.6,0.6-5.3c0-3.7-1.4-6.4-5.6-6.4c-4.8,0-11.1,5.8-13,16.3l-3.8,20.6
		H283.3z"/>
	<path d="M355.7,197.2c-6.7,0-11.1,5.9-12.3,11.3c11,0.1,18-1.4,18-6.8C361.3,198.9,359.1,197.2,355.7,197.2 M365.8,232.2
		c-4.4,2.3-10.3,3.6-15.7,3.6c-12.3,0-18.3-7.6-18.3-18.5c0-13.4,9.9-28,25.2-28c8.8,0,14.3,5,14.3,12.5c0,11.4-12,15.1-29.1,14.7
		c-0.2,1.6,0.2,4.6,1.2,6.3c1.7,3,4.9,4.6,9.1,4.6c5,0,9-1.3,12.2-2.9L365.8,232.2z"/>
	<path d="M397.1,197.2c-6.7,0-11.1,5.9-12.3,11.3c11,0.1,18-1.4,18-6.8C402.7,198.9,400.4,197.2,397.1,197.2 M407.2,232.2
		c-4.4,2.3-10.3,3.6-15.7,3.6c-12.3,0-18.3-7.6-18.3-18.5c0-13.4,9.9-28,25.2-28c8.8,0,14.4,5,14.4,12.5c0,11.4-12,15.1-29.1,14.7
		c-0.2,1.6,0.2,4.6,1.2,6.3c1.7,3,4.9,4.6,9.1,4.6c5,0,9-1.3,12.2-2.9L407.2,232.2z"/>
	<path d="M413.4,234.7l5.2-27.4c1.2-6.3,1.8-13.2,2.3-17.1h9.2c-0.3,3-0.5,6.1-1,9.3h0.3c3-5.9,7.9-10.3,13.9-10.3
		c0.8,0,1.6,0.1,2.4,0.1l-2.1,10.4c-0.5-0.1-1.3-0.1-2-0.1c-7.6,0-12.4,7.7-14.2,17.2l-3.4,17.9H413.4z"/>
	<path d="M453.8,194.3h0.8c0.8,0,1.3-0.4,1.3-1.1c0-0.8-0.6-1.1-1.4-1.1c-0.4,0-0.6,0-0.8,0.1V194.3z M453,191.6
		c0.4-0.1,0.9-0.1,1.5-0.1c0.8,0,1.3,0.2,1.7,0.5c0.3,0.3,0.5,0.7,0.5,1.1c0,0.8-0.5,1.3-1.1,1.5v0c0.5,0.2,0.7,0.6,0.9,1.2
		c0.2,0.8,0.3,1.4,0.5,1.6H456c-0.1-0.2-0.2-0.7-0.4-1.4c-0.2-0.8-0.5-1.1-1.2-1.1h-0.7v2.6H453V191.6z"/>
	<path d="M454.7,189.2c-2.9,0-5.3,2.4-5.3,5.3c0,2.9,2.4,5.3,5.3,5.3s5.3-2.4,5.3-5.3C460,191.6,457.6,189.2,454.7,189.2 M454.7,190
		c2.5,0,4.4,2,4.4,4.5c0,2.5-2,4.5-4.4,4.5c-2.5,0-4.5-2-4.5-4.5C450.3,192,452.3,190,454.7,190"/>
</g>
</svg>
