<svg width="40" height="36" viewBox="0 0 40 36" fill="none" xmlns="http://www.w3.org/2000/svg">
<path d="M39.4183 0.571355L10.5728 8.64819C10.0185 8.81418 9.96136 9.20896 10.4457 9.52538L16.7789 13.664C17.2632 13.9805 17.2204 14.4165 16.6839 14.6329L1.08138 20.9258C0.544696 21.1422 0.565629 21.4319 1.12746 21.5694L14.9129 24.9447C15.4749 25.0823 15.5266 25.4347 15.0278 25.728L0.251947 34.3379C-0.246767 34.6311 0.0583944 35.581 0.620118 35.4424L33.7328 27.7021C34.2945 27.5636 34.3778 27.163 33.9178 26.812L25.9974 20.7686C25.5374 20.4176 25.5922 19.9347 26.1189 19.6956L39.0681 13.8162C39.5949 13.5771 39.5741 13.2402 39.0218 13.0679L29.0785 9.96435C28.5262 9.79194 28.4613 9.37832 28.9342 9.04497L39.7516 1.36029C40.2244 1.02705 39.9726 0.405363 39.4183 0.571355ZM33.794 3.68987L25.4101 9.59807C24.9373 9.93142 25.0022 10.3451 25.5545 10.5174L34.6025 13.3416C35.1548 13.514 35.1756 13.8508 34.6488 14.0899L23.0643 19.3497C22.5374 19.5888 22.4827 20.0716 22.9428 20.4226L30.3428 26.0689C30.8028 26.4199 30.7195 26.8205 30.1578 26.959L6.86356 32.7064C6.30184 32.8449 6.2503 32.7185 6.74901 32.4252L19.1766 25.1192C19.6753 24.8259 19.6235 24.4734 19.0616 24.336L6.25861 21.2012C5.69667 21.0637 5.67595 20.774 6.21253 20.5577L20.0774 14.9655C20.614 14.7491 20.6567 14.3131 20.1724 13.9966L14.1522 10.0625C13.6678 9.74607 13.725 9.35129 14.2794 9.1853L33.6461 3.38566C34.2004 3.21966 34.2669 3.35652 33.794 3.68987Z" fill="white"/>
</svg>
