<svg width="65" height="65" viewBox="0 0 65 65" fill="none" xmlns="http://www.w3.org/2000/svg">
<path d="M28.6914 53.5742H21.0742C20.0225 53.5742 19.1699 54.4268 19.1699 55.4785C19.1699 56.5302 20.0225 57.3828 21.0742 57.3828H28.6914C29.7431 57.3828 30.5957 56.5302 30.5957 55.4785C30.5957 54.4268 29.7431 53.5742 28.6914 53.5742Z" fill="white"/>
<path d="M44.5605 15.4677V5.71289C44.5605 2.5628 41.9977 0 38.8477 0H10.918C7.76788 0 5.20508 2.5628 5.20508 5.71289V59.2871C5.20508 62.4372 7.76788 65 10.918 65H38.8477C41.9977 65 44.5605 62.4372 44.5605 59.2871V49.5323C53.118 48.5819 59.7949 41.3066 59.7949 32.5C59.7949 23.6934 53.118 16.4181 44.5605 15.4677ZM29.8579 3.80859L28.5883 7.61719H21.1772L19.9076 3.80859H29.8579ZM40.752 59.2871C40.752 60.3371 39.8977 61.1914 38.8477 61.1914H10.918C9.86794 61.1914 9.01367 60.3371 9.01367 59.2871V5.71289C9.01367 4.66286 9.86794 3.80859 10.918 3.80859H15.893L17.998 10.1238C18.2574 10.9013 18.9851 11.4258 19.8047 11.4258H29.9609C30.7805 11.4258 31.5082 10.9013 31.7675 10.1238L33.8726 3.80859H38.8477C39.8977 3.80859 40.752 4.66286 40.752 5.71289V15.4677C32.1946 16.4181 25.5176 23.6934 25.5176 32.5C25.5176 41.3066 32.1946 48.5819 40.752 49.5323V59.2871ZM42.6562 45.8301C35.306 45.8301 29.3262 39.8502 29.3262 32.5C29.3262 25.1498 35.306 19.1699 42.6562 19.1699C50.0065 19.1699 55.9863 25.1498 55.9863 32.5C55.9863 39.8502 50.0065 45.8301 42.6562 45.8301Z" fill="white"/>
<path d="M49.9375 30.8401L39.7813 25.1272C38.5119 24.4132 36.9434 25.3306 36.9434 26.787V38.2127C36.9434 39.6691 38.5119 40.5865 39.7813 39.8725L49.9375 34.1596C51.2317 33.4316 51.2317 31.5681 49.9375 30.8401ZM40.752 34.9566V30.0431L45.1196 32.4998L40.752 34.9566Z" fill="white"/>
</svg>
